<svg width="18" height="18" viewBox="0 0 18 18" fill="none" xmlns="http://www.w3.org/2000/svg">
<circle cx="9" cy="9" r="9" fill="#858181"/>
<g clip-path="url(#clip0_309_8436)">
<path d="M16 10.8148L14.3154 7.1851L12.6308 10.8148H13.7654C13.0512 13.2169 10.9622 14.9629 8.49765 14.9629C5.44567 14.9629 2.96235 12.2879 2.96235 8.99995C2.96235 5.71217 5.44567 3.03698 8.49765 3.03698C10.8493 3.03698 12.8583 4.62772 13.6584 6.86112L14.2115 5.66905C13.1109 3.48561 10.9628 2 8.49808 2C4.91515 1.99991 2 5.1401 2 8.99995C2 12.8595 4.91515 16 8.498 16C11.498 16 14.0241 13.7968 14.7686 10.8149L16 10.8148Z" fill="white"/>
<path d="M5.04834 10.3967H5.65686L5.84155 9.67962H6.58417L6.78449 10.3967H7.41543L6.61123 7.60278H5.84155L5.04834 10.3967ZM6.07984 8.61423C6.1222 8.45238 6.16068 8.24092 6.19924 8.07538H6.2068C6.24538 8.24092 6.29168 8.44886 6.33797 8.61423L6.49965 9.20767H5.92625L6.07984 8.61423Z" fill="white"/>
<path d="M9.02119 8.09615C9.30562 8.09615 9.48257 8.1501 9.62499 8.21589L9.74835 7.71008C9.6213 7.64391 9.36334 7.57312 9.02875 7.57312C8.17824 7.57312 7.55126 8.10346 7.5467 9.03236C7.54309 9.44267 7.67383 9.80708 7.91265 10.0482C8.15128 10.297 8.49359 10.4254 8.96725 10.4254C9.30914 10.4254 9.65231 10.3343 9.83271 10.268V8.79638H8.86709V9.28971H9.26782V9.8739C9.22126 9.89925 9.11337 9.91545 8.97876 9.91545C8.49737 9.91545 8.16296 9.57519 8.16296 8.99895C8.16296 8.3943 8.53199 8.09615 9.02119 8.09615Z" fill="white"/>
<path d="M11.8939 8.12118V7.60315H10.293V10.3966H11.9478V9.87903H10.8818V9.21572H11.8365V8.70121H10.8818V8.12118H11.8939Z" fill="white"/>
</g>
<defs>
<clipPath id="clip0_309_8436">
<rect width="14" height="14" fill="white" transform="translate(2 2)"/>
</clipPath>
</defs>
</svg>
