<svg width="15" height="16" viewBox="0 0 15 16" fill="none" xmlns="http://www.w3.org/2000/svg">
<path d="M0 5.73687C0 4.24793 -4.47035e-08 3.50424 0.4395 3.04161C0.879 2.57898 1.5855 2.57898 3 2.57898H12C13.4145 2.57898 14.121 2.57898 14.5605 3.04161C15 3.50424 15 4.24793 15 5.73687C15 6.10872 15 6.29503 14.8905 6.41108C14.7803 6.52635 14.6025 6.52635 14.25 6.52635H0.75C0.39675 6.52635 0.21975 6.52635 0.1095 6.41108C-6.70552e-08 6.29503 0 6.10793 0 5.73687ZM0 12.8421C0 14.3311 -4.47035e-08 15.0748 0.4395 15.5374C0.879 16 1.5855 16 3 16H12C13.4145 16 14.121 16 14.5605 15.5374C15 15.0748 15 14.3311 15 12.8421V8.89477C15 8.52293 15 8.33661 14.8905 8.22056C14.7803 8.1053 14.6025 8.1053 14.25 8.1053H0.75C0.39675 8.1053 0.21975 8.1053 0.1095 8.22056C-6.70552e-08 8.33661 0 8.52372 0 8.89477V12.8421Z" fill="#858181"/>
<path d="M3.75 1V3.36842ZM11.25 1V3.36842Z" fill="#858181"/>
<path d="M3.75 1V3.36842M11.25 1V3.36842" stroke="#858181" stroke-width="2" stroke-linecap="round"/>
</svg>
