<svg width="18" height="18" viewBox="0 0 18 18" fill="none" xmlns="http://www.w3.org/2000/svg">
<circle cx="9" cy="9" r="9" fill="#858181"/>
<path d="M7.5 9C6.83696 9 6.20107 8.73661 5.73223 8.26777C5.26339 7.79893 5 7.16304 5 6.5V4.5C5 4.36739 5.05268 4.24021 5.14645 4.14645C5.24021 4.05268 5.36739 4 5.5 4H6C6.13261 4 6.25979 3.94732 6.35355 3.85355C6.44732 3.75979 6.5 3.63261 6.5 3.5C6.5 3.36739 6.44732 3.24021 6.35355 3.14645C6.25979 3.05268 6.13261 3 6 3H5.5C5.10218 3 4.72064 3.15804 4.43934 3.43934C4.15804 3.72064 4 4.10218 4 4.5V6.5C4.00064 7.06487 4.13839 7.62114 4.4014 8.12104C4.66441 8.62094 5.04484 9.04953 5.51 9.37C5.95691 9.76401 6.31935 10.2445 6.57544 10.7825C6.83153 11.3204 6.97596 11.9047 7 12.5C7 13.4283 7.36875 14.3185 8.02513 14.9749C8.6815 15.6313 9.57174 16 10.5 16C11.4283 16 12.3185 15.6313 12.9749 14.9749C13.6313 14.3185 14 13.4283 14 12.5V11.93C14.4713 11.8083 14.8821 11.5189 15.1553 11.116C15.4285 10.7131 15.5454 10.2244 15.4841 9.7415C15.4227 9.25859 15.1874 8.81463 14.8221 8.49284C14.4569 8.17104 13.9868 7.99351 13.5 7.99351C13.0132 7.99351 12.5431 8.17104 12.1779 8.49284C11.8126 8.81463 11.5773 9.25859 11.5159 9.7415C11.4546 10.2244 11.5715 10.7131 11.8447 11.116C12.1179 11.5189 12.5287 11.8083 13 11.93V12.5C13 13.163 12.7366 13.7989 12.2678 14.2678C11.7989 14.7366 11.163 15 10.5 15C9.83696 15 9.20107 14.7366 8.73223 14.2678C8.26339 13.7989 8 13.163 8 12.5C8.02531 11.9039 8.1713 11.3192 8.42912 10.7812C8.68695 10.2432 9.05126 9.76313 9.5 9.37C9.96331 9.04842 10.3418 8.61934 10.603 8.11951C10.8643 7.61968 11.0005 7.06398 11 6.5V4.5C11 4.10218 10.842 3.72064 10.5607 3.43934C10.2794 3.15804 9.89782 3 9.5 3H9C8.86739 3 8.74021 3.05268 8.64645 3.14645C8.55268 3.24021 8.5 3.36739 8.5 3.5C8.5 3.63261 8.55268 3.75979 8.64645 3.85355C8.74021 3.94732 8.86739 4 9 4H9.5C9.63261 4 9.75979 4.05268 9.85355 4.14645C9.94732 4.24021 10 4.36739 10 4.5V6.5C10 6.8283 9.93534 7.15339 9.8097 7.45671C9.68406 7.76002 9.49991 8.03562 9.26777 8.26777C9.03562 8.49991 8.76002 8.68406 8.45671 8.8097C8.15339 8.93534 7.8283 9 7.5 9ZM13.5 11C13.2348 11 12.9804 10.8946 12.7929 10.7071C12.6054 10.5196 12.5 10.2652 12.5 10C12.5 9.73478 12.6054 9.48043 12.7929 9.29289C12.9804 9.10536 13.2348 9 13.5 9C13.7652 9 14.0196 9.10536 14.2071 9.29289C14.3946 9.48043 14.5 9.73478 14.5 10C14.5 10.2652 14.3946 10.5196 14.2071 10.7071C14.0196 10.8946 13.7652 11 13.5 11Z" fill="white"/>
</svg>
