<svg width="15" height="18" viewBox="0 0 15 18" fill="none" xmlns="http://www.w3.org/2000/svg">
<path fill-rule="evenodd" clip-rule="evenodd" d="M8.71345 0.966287C8.71345 0.710012 8.83252 0.464233 9.04446 0.283019C9.2564 0.101805 9.54386 0 9.84358 0H13.8699C14.1696 0 14.4571 0.101805 14.669 0.283019C14.8809 0.464233 15 0.710012 15 0.966287V4.41014C15 4.66641 14.8809 4.91219 14.669 5.0934C14.4571 5.27462 14.1696 5.37642 13.8699 5.37642C13.5701 5.37642 13.2827 5.27462 13.0707 5.0934C12.8588 4.91219 12.7397 4.66641 12.7397 4.41014V3.29826L10.6452 5.08911C11.177 5.7685 11.5045 6.5496 11.5987 7.36314C11.6928 8.17668 11.5507 8.99751 11.185 9.75284C10.8192 10.5082 10.2411 11.1747 9.5019 11.6932C8.76271 12.2117 7.88528 12.5662 6.94743 12.7254V13.7728H8.50099C8.80072 13.7728 9.08817 13.8746 9.30011 14.0558C9.51205 14.237 9.63112 14.4828 9.63112 14.7391C9.63112 14.9954 9.51205 15.2412 9.30011 15.4224C9.08817 15.6036 8.80072 15.7054 8.50099 15.7054H6.94743V17.0337C6.94743 17.29 6.82837 17.5358 6.61643 17.717C6.40449 17.8982 6.11703 18 5.8173 18C5.51757 18 5.23012 17.8982 5.01818 17.717C4.80624 17.5358 4.68717 17.29 4.68717 17.0337V15.7054H3.1306C2.98219 15.7054 2.83523 15.6804 2.69812 15.6318C2.56101 15.5833 2.43642 15.5121 2.33148 15.4224C2.22654 15.3326 2.14329 15.2261 2.0865 15.1089C2.0297 14.9916 2.00047 14.866 2.00047 14.7391C2.00047 14.6122 2.0297 14.4866 2.0865 14.3693C2.14329 14.2521 2.22654 14.1456 2.33148 14.0558C2.43642 13.9661 2.56101 13.8949 2.69812 13.8464C2.83523 13.7978 2.98219 13.7728 3.1306 13.7728H4.68566V12.7241C3.84215 12.5818 3.04608 12.2812 2.35487 11.844C1.66366 11.4068 1.09454 10.8439 0.68856 10.1959C0.282578 9.54788 0.0498518 8.8309 0.00716589 8.09668C-0.0355201 7.36246 0.112898 6.62928 0.441716 5.95004C0.770535 5.2708 1.27156 4.66241 1.90865 4.16876C2.54574 3.67512 3.30302 3.30851 4.12588 3.09539C4.94873 2.88226 5.81665 2.82793 6.66703 2.93631C7.51741 3.0447 8.32907 3.31309 9.04345 3.72214L11.138 1.93129H9.84208C9.54235 1.93129 9.25489 1.82948 9.04295 1.64827C8.83101 1.46705 8.71195 1.22127 8.71195 0.964999L8.71345 0.966287ZM2.85636 6.37492C2.85636 5.93043 3.27827 5.56968 3.79813 5.56968H7.83647C8.08625 5.56968 8.32579 5.65452 8.50241 5.80553C8.67902 5.95654 8.77825 6.16136 8.77825 6.37492C8.77825 6.58848 8.67902 6.7933 8.50241 6.94431C8.32579 7.09532 8.08625 7.18016 7.83647 7.18016H3.79813C3.54836 7.18016 3.30881 7.09532 3.1322 6.94431C2.95558 6.7933 2.85636 6.58848 2.85636 6.37492ZM3.79813 8.52652C3.54836 8.52652 3.30881 8.61136 3.1322 8.76237C2.95558 8.91338 2.85636 9.1182 2.85636 9.33176C2.85636 9.54532 2.95558 9.75014 3.1322 9.90115C3.30881 10.0522 3.54836 10.137 3.79813 10.137H7.83647C8.08625 10.137 8.32579 10.0522 8.50241 9.90115C8.67902 9.75014 8.77825 9.54532 8.77825 9.33176C8.77825 9.1182 8.67902 8.91338 8.50241 8.76237C8.32579 8.61136 8.08625 8.52652 7.83647 8.52652H3.79813Z" fill="#858181"/>
</svg>
