<svg width="11" height="15" viewBox="0 0 11 15" fill="none" xmlns="http://www.w3.org/2000/svg">
<path d="M5.5 15C5.5 15 0.25 8.1525 0.25 5.25C0.25 4.56056 0.385795 3.87787 0.649633 3.24091C0.91347 2.60395 1.30018 2.0252 1.78769 1.53769C2.2752 1.05018 2.85395 0.66347 3.49091 0.399632C4.12787 0.135795 4.81056 0 5.5 0C6.18944 0 6.87213 0.135795 7.50909 0.399632C8.14605 0.66347 8.7248 1.05018 9.21231 1.53769C9.69982 2.0252 10.0865 2.60395 10.3504 3.24091C10.6142 3.87787 10.75 4.56056 10.75 5.25C10.75 8.1525 5.5 15 5.5 15ZM5.5 6.75C5.89782 6.75 6.27936 6.59196 6.56066 6.31066C6.84196 6.02936 7 5.64782 7 5.25C7 4.85218 6.84196 4.47064 6.56066 4.18934C6.27936 3.90804 5.89782 3.75 5.5 3.75C5.10218 3.75 4.72064 3.90804 4.43934 4.18934C4.15804 4.47064 4 4.85218 4 5.25C4 5.64782 4.15804 6.02936 4.43934 6.31066C4.72064 6.59196 5.10218 6.75 5.5 6.75Z" fill="#858181"/>
</svg>
