<svg width="16" height="16" viewBox="0 0 16 16" fill="none" xmlns="http://www.w3.org/2000/svg">
<path fill-rule="evenodd" clip-rule="evenodd" d="M11.8987 15.1634C10.8169 15.1236 7.75096 14.7 4.54003 11.4904C1.32985 8.28017 0.906886 5.21561 0.866318 4.13326C0.806216 2.4838 2.06985 0.881674 3.52957 0.255995C3.70535 0.180107 3.89784 0.151215 4.08816 0.172152C4.27848 0.193089 4.46008 0.263137 4.61515 0.375422C5.81719 1.25122 6.64659 2.57619 7.35879 3.61799C7.5155 3.84688 7.5825 4.1254 7.54703 4.4005C7.51156 4.6756 7.3761 4.92803 7.16647 5.10971L5.70074 6.19807C5.62993 6.2492 5.58008 6.32428 5.56046 6.40938C5.54084 6.49448 5.55278 6.5838 5.59406 6.66076C5.92612 7.26391 6.51662 8.16224 7.19276 8.83825C7.86966 9.51425 8.81025 10.1437 9.45559 10.5132C9.5365 10.5586 9.63174 10.5713 9.72173 10.5487C9.81172 10.5261 9.88961 10.4698 9.93941 10.3916L10.8935 8.93965C11.0689 8.70669 11.3277 8.55062 11.6156 8.50414C11.9035 8.45765 12.1983 8.52436 12.4381 8.69028C13.4952 9.42186 14.7288 10.2368 15.6318 11.3928C15.7532 11.549 15.8304 11.7349 15.8554 11.9311C15.8804 12.1273 15.8522 12.3266 15.7738 12.5082C15.145 13.9751 13.5538 15.2242 11.8987 15.1634Z" fill="#858181"/>
</svg>
