<svg width="13" height="15" viewBox="0 0 13 15" fill="none" xmlns="http://www.w3.org/2000/svg">
<path d="M8.38442 9.08308C8.29269 9.05308 7.71288 8.79173 8.07519 7.69038H8.07C9.01442 6.71769 9.73615 5.1525 9.73615 3.61154C9.73615 1.24212 8.16058 0 6.32942 0C4.49712 0 2.93019 1.24154 2.93019 3.61154C2.93019 5.15885 3.64788 6.73038 4.59808 7.70077C4.96846 8.67231 4.30615 9.03288 4.16769 9.08365C2.25 9.77712 0 11.0412 0 12.289V12.7569C0 14.4571 3.29654 14.8437 6.34731 14.8437C9.40269 14.8437 12.6577 14.4571 12.6577 12.7569V12.289C12.6577 11.0037 10.3967 9.74942 8.38442 9.08308Z" fill="#858181"/>
</svg>
