<svg width="18" height="18" viewBox="0 0 18 18" fill="none" xmlns="http://www.w3.org/2000/svg">
<circle cx="9" cy="9" r="9" fill="#858181"/>
<path d="M4 14C4 13.075 4.123 12.2855 4.369 11.6315C4.615 10.9775 4.92933 10.4337 5.312 10C5.69533 9.56667 6.1245 9.23117 6.5995 8.9935C7.0745 8.75583 7.54133 8.59133 8 8.5V7C6.85833 6.85833 5.90633 6.50617 5.144 5.9435C4.38167 5.38083 4.00033 4.733 4 4H14C14 4.73333 13.6188 5.38133 12.8565 5.944C12.0942 6.50667 11.142 6.85867 10 7V8.5C10.4583 8.59167 10.925 8.75633 11.4 8.994C11.875 9.23167 12.3042 9.567 12.6875 10C13.0708 10.4333 13.3855 10.9772 13.6315 11.6315C13.8775 12.2858 14.0003 13.0753 14 14H11V13H12.9375C12.7875 11.7333 12.3145 10.8167 11.5185 10.25C10.7225 9.68333 9.883 9.4 9 9.4C8.11667 9.4 7.277 9.68333 6.481 10.25C5.685 10.8167 5.21217 11.7333 5.0625 13H7V14H4ZM9 6.0625C9.75833 6.0625 10.4333 5.9605 11.025 5.7565C11.6167 5.5525 12.0875 5.30033 12.4375 5H5.5625C5.9125 5.3 6.38333 5.55217 6.975 5.7565C7.56667 5.96083 8.24167 6.06283 9 6.0625ZM9 14C8.725 14 8.48967 13.9022 8.294 13.7065C8.09833 13.5108 8.00033 13.2753 8 13C8 12.8583 8.02717 12.7292 8.0815 12.6125C8.13583 12.4958 8.20867 12.3917 8.3 12.3C8.5 12.1 8.8375 11.8895 9.3125 11.6685C9.7875 11.4475 10.35 11.2247 11 11C10.7667 11.65 10.5417 12.2125 10.325 12.6875C10.1083 13.1625 9.9 13.5 9.7 13.7C9.60833 13.7917 9.50417 13.8647 9.3875 13.919C9.27083 13.9733 9.14167 14.0003 9 14Z" fill="white"/>
</svg>
